<?xml version="1.0" encoding="UTF-8"?>
<!DOCTYPE svg PUBLIC "-//W3C//DTD SVG 1.1//EN" "http://www.w3.org/Graphics/SVG/1.1/DTD/svg11.dtd">
<!-- Creator: CorelDRAW 2021 (64-Bit) -->
<svg xmlns="http://www.w3.org/2000/svg" xml:space="preserve" width="1267px" height="1298px" version="1.1" style="shape-rendering:geometricPrecision; text-rendering:geometricPrecision; image-rendering:optimizeQuality; fill-rule:evenodd; clip-rule:evenodd"
viewBox="0 0 368.36 377.52"
 xmlns:xlink="http://www.w3.org/1999/xlink"
 xmlns:xodm="http://www.corel.com/coreldraw/odm/2003">
 <defs>
  <style type="text/css">
   <![CDATA[
    .str2 {stroke:#22222E;stroke-width:1.76;stroke-linecap:round;stroke-linejoin:round;stroke-miterlimit:10}
    .str1 {stroke:#22222E;stroke-width:1.76;stroke-linecap:round;stroke-linejoin:round;stroke-miterlimit:10}
    .str3 {stroke:#22222E;stroke-width:1.69;stroke-linecap:round;stroke-linejoin:round;stroke-miterlimit:10}
    .str0 {stroke:#22222E;stroke-width:1.71;stroke-linecap:round;stroke-linejoin:round;stroke-miterlimit:10}
    .str4 {stroke:#CDF348;stroke-width:4.38;stroke-linecap:round;stroke-linejoin:round;stroke-miterlimit:10}
    .fil1 {fill:none;fill-rule:nonzero}
    .fil4 {fill:#CDF348}
    .fil3 {fill:#22222E;fill-rule:nonzero}
    .fil2 {fill:#22222E;fill-rule:nonzero}
    .fil0 {fill:#CDF348;fill-rule:nonzero}
   ]]>
  </style>
 </defs>
 <g id="BACKGROUND">
  <metadata id="CorelCorpID_0Corel-Layer"/>
  <path class="fil0" d="M195.91 54.13c-5.71,5.36 7.83,11.63 0.86,19 -6.97,7.37 -1.06,22.65 11.56,19.53 12.62,-3.12 16.62,14.27 24.46,9.04 3.82,-2.54 1.12,-10 -1.43,-17.77 -7.27,1.11 -12.9,1.61 -12.9,1.61l-2.81 -4.98 1.43 -6.71c4,-0.66 7.8,-1.44 11.32,-2.27 -0.19,-3.4 0.61,-6.23 3.26,-7.87 10.74,-6.68 12.73,-27.74 -11.57,-7.62 -5.38,4.46 -18.47,-7.32 -24.18,-1.96z"/>
 </g>
 <g id="OBJECTS">
  <metadata id="CorelCorpID_1Corel-Layer"/>
  <g id="_1825233598224">
   <g>
    <path class="fil0" d="M158.59 242.42c0,0 -1.27,2.41 -6.83,3.83 -5.56,1.41 -9.45,3.05 -10.8,-0.86 -1.34,-3.92 5.76,-1.19 12.33,-6.88 6.56,-5.7 8.7,-0.14 5.3,3.91z"/>
    <path class="fil0" d="M102.61 211.44c0,0 -1.52,-2.27 -0.13,-7.83 1.4,-5.56 1.81,-9.77 5.89,-9.09 4.09,0.68 -1.69,5.63 0.2,14.11 1.89,8.48 -4.02,7.73 -5.96,2.81z"/>
    <path class="fil0" d="M121.91 247.47c7.87,9.18 21.23,11.74 31.9,6.06 2.02,-1.08 4.05,-2.47 6,-4.27 12.18,-11.18 31.67,2.22 25.74,5.7 -5.93,3.47 -11.59,-6.55 -20.75,1.52 -9.15,8.06 -29.08,16.37 -48.45,7.04 -21.92,-10.55 -30.9,-34.71 -27.73,-51.23 0.39,-2.05 2.26,-3.57 4.34,-3.34 1.87,0.21 3.77,1.62 3.89,6.42 0.23,9.59 1.18,19.3 9.33,28.29 7.02,7.75 1.72,-9.47 0.69,-14.18 -1.03,-4.72 0.17,-11.94 5.04,-4.99 4.94,7.05 3.38,15.25 10,22.98z"/>
   </g>
   <g>
    <g>
     <g>
      <g>
       <path class="fil1 str0" d="M202.65 268.14c-0.73,3.18 12.14,8.86 28.76,12.68 16.61,3.82 30.67,4.35 31.41,1.17 0.73,-3.18 -12.15,-8.86 -28.76,-12.69 -16.62,-3.82 -30.68,-4.34 -31.41,-1.16z"/>
       <line class="fil1 str0" x1="262.82" y1="281.99" x2="261.87" y2= "286.1" />
       <path class="fil1 str0" d="M261.87 286.1c-0.73,3.18 -14.79,2.65 -31.41,-1.17 -16.61,-3.82 -29.49,-9.5 -28.76,-12.68"/>
       <line class="fil1 str0" x1="201.7" y1="272.25" x2="202.65" y2= "268.14" />
      </g>
      <line class="fil1 str0" x1="258.13" y1="287.94" x2="238.88" y2= "352.68" />
      <path class="fil1 str0" d="M238.88 352.68c-1.32,4.45 -5.27,7.65 -9.9,7.95 -6.75,0.44 -17.26,-0.68 -29.51,-8.27 -3.8,-2.35 -5.86,-6.7 -5.22,-11.12"/>
      <line class="fil1 str0" x1="194.25" y1="341.24" x2="203.72" y2= "275.55" />
     </g>
     <path class="fil0" d="M204.18 313.35c-2.33,10.11 0.57,19.41 6.48,20.77 5.91,1.36 12.59,-5.74 14.92,-15.85 2.32,-10.11 -0.58,-19.41 -6.49,-20.77 -5.91,-1.36 -12.59,5.74 -14.91,15.85z"/>
    </g>
    <g>
     <path class="fil1 str0" d="M221.65 225.6c-2.07,2.73 7.88,13.09 22.21,23.12 14.34,10.03 27.64,15.95 29.71,13.21 2.07,-2.74 -7.87,-13.09 -22.21,-23.12 -14.33,-10.03 -27.63,-15.95 -29.71,-13.21z"/>
     <line class="fil1 str0" x1="273.57" y1="261.93" x2="271.62" y2= "264.86" />
     <path class="fil1 str0" d="M271.62 264.86c-1.03,1.61 -3.14,2.28 -5.15,1.64 -5.13,-1.63 -16.99,-7.66 -26.79,-14.42 -11.97,-8.26 -18.02,-15.63 -20.7,-19.62 -1.31,-1.93 -0.92,-4.36 0.89,-5.62"/>
     <line class="fil1 str0" x1="219.87" y1="226.84" x2="221.65" y2= "225.6" />
    </g>
    <path class="fil0" d="M241.9 282.05c0,0 2.85,-8.79 -25.72,-21.29 -28.57,-12.5 -12.88,-28.87 -20.07,-32.35 -7.19,-3.49 -7.66,24.05 5.28,30.81 0,0 -15.86,0.87 -13.1,7.34 3.17,7.44 9.54,-4.37 15.12,2.9 0.14,0.19 0.31,0.33 0.48,0.49 4.47,4.14 24.63,10.59 38.01,12.1z"/>
    <path class="fil1 str0" d="M201.39 259.22c0,0 6.02,-0.56 13.04,6.98"/>
   </g>
  </g>
  <g id="_1825233603648">
   <path class="fil0" d="M98.61 304.77c0,0 -8.64,16.17 11.73,29.96 22.74,15.38 43.48,-3.45 46.34,-7.53 0,0 11.31,3.92 19.75,0.95 0,0 -14.04,-1.82 -18.2,-8.7 0,0 -4.19,-25.8 -28.5,-30.63 -24.32,-4.83 -31.12,15.95 -31.12,15.95z"/>
   <g>
    <path class="fil1 str0" d="M97.34 308.06c0,0 -18.67,5.53 -31.31,-20.86 -12.63,-26.4 -17.54,-31.17 -30.13,-41.67 -12.59,-10.49 -15.25,-34.47 0.1,-35.41 15.34,-0.93 19.07,17.11 18.74,28.51 -0.33,11.4 13.34,-6.81 15.57,13.12 2.24,19.94 -0.04,46.53 29.4,50.49"/>
    <path class="fil1 str0" d="M96.67 312.39c0,0 -22.73,5.64 -33.15,-16.06 -10.42,-21.71 -19.53,-33.51 -40.37,-48.85 -20.83,-15.33 -24.59,-44.64 -9.13,-49.6 15.47,-4.97 21.98,12.24 21.98,12.24"/>
    <path class="fil1 str0" d="M63.52 296.33c0,0 -8.68,-14.18 -23.71,-11.82 -15.02,2.37 -15.44,-11.59 -6.12,-13.25 0,0 -9.49,-4.06 -2.05,-9.52 0,0 -10.57,-1.1 -6.46,-12.75"/>
    <path class="fil1 str0" d="M109.2 305.64c2.26,-4.57 6.32,-7.96 10.42,-10.98"/>
    <path class="fil1 str0" d="M109.24 320.58c1.84,-10.73 8.55,-20.53 17.88,-26.13"/>
    <path class="fil1 str0" d="M121.32 312.46c0.54,-2.55 1.82,-4.91 3.4,-7 1.57,-2.09 4.7,-4.94 6.68,-6.21"/>
    <path class="fil1 str0" d="M109.19 296.37c1.36,-1.2 2.19,-1.71 3.87,-2.39"/>
    <path class="fil1 str0" d="M133.09 308.19c0.25,-1.32 1.19,-2.4 2.17,-3.32 1.87,-1.78 4.01,-3.27 6.32,-4.41"/>
    <path class="fil1 str0" d="M140.68 307.87c1.29,-1.41 2.92,-2.49 4.72,-3.12"/>
    <path class="fil1 str0" d="M145.06 312c1.18,-1.45 2.59,-2.72 4.15,-3.75"/>
   </g>
  </g>
  <g id="_1825233605904">
   <path class="fil0" d="M94.22 159.73c1.92,2.93 2.01,6.21 -0.97,8.1 -1.19,0.75 -2.64,1.03 -4.05,1.29 -1.83,0.35 -3.68,0.69 -5.54,0.55 -2.03,-0.16 -3.97,-0.89 -5.83,-1.68 -4.42,-1.89 -8.65,-4.21 -12.58,-6.91 -2.03,-1.4 -2.53,-2.04 -4.91,-1.88 -1.99,0.14 -3.97,-0.2 -5.88,-0.74 -6.16,-1.73 -11.67,-5.48 -15.5,-10.38 -0.95,-1.21 -1.77,-2.48 -2.51,-3.8 -0.9,-1.63 -0.81,-1.78 -2.65,-2.06 -3.2,-0.48 -6,-0.77 -8.97,-2.26 -4.33,-2.18 -7.86,-5.57 -10.96,-9.18 -0.81,-0.94 -1.62,-1.98 -1.77,-3.18 -0.1,-0.86 0.16,-1.73 0.53,-2.51 1.99,-4.29 6.98,-6.87 11.81,-5.64 0,0 -9.98,9.94 25.79,29.26 35.77,19.33 43.99,11.02 43.99,11.02z"/>
   <path class="fil1 str1" d="M28.96 114.12c0,0 -11.24,10.19 -2.94,17.53 10.66,9.44 51.01,37.68 67.85,28.06 0,0 17.39,-28.29 -17.97,-48.03 0,0 -28.94,-14.82 -46.94,2.44z"/>
   <path class="fil1 str1" d="M13.32 130.64c-0.85,0.44 -1.27,0.75 -1.25,1.67 0.04,1.87 3.57,1.73 4.36,3.46 0.49,1.09 -0.37,2.22 -0.84,3.3 -0.76,1.76 -0.17,4.21 1.72,4.91 2.06,0.76 4.14,-0.83 5.6,-2.35 2.63,0.6 4.27,3.07 5.43,5.39 1.17,2.32 0.72,6.92 3.07,8.21 0.4,0.22 0.85,0.4 1.31,0.38 1.4,-0.06 3.95,-3.91 5.3,-3.53 0.7,0.2 1.08,0.9 1.61,1.38 1.24,1.09 3.22,1.26 3.81,-0.22"/>
   <path class="fil1 str1" d="M54.86 159.18c-0.19,0.71 -0.19,0.72 -0.39,1.43 -0.31,1.15 -0.62,2.36 -0.33,3.53 0.29,1.17 1.4,2.27 2.65,2.16 1.06,-0.09 1.97,-0.97 3.02,-0.77 0.5,0.09 0.91,0.42 1.26,0.78 0.96,0.99 1.57,2.28 1.7,3.6 0.12,1.13 -0.1,2.27 0.01,3.4 0.1,1.13 0.65,2.35 1.76,2.81 1.63,0.66 3.33,-0.64 4.41,-1.95 1.07,-1.3 2.28,-2.85 4.04,-2.84 2.23,0.01 3.46,2.43 4.22,4.43 0.16,0.41 0.33,0.84 0.69,1.11 1.04,0.77 2.44,-0.34 3.11,-1.39 0.68,-1.05 1.76,-2.32 2.98,-1.85 1.02,0.39 1.3,1.8 2.34,2.14 1.05,0.34 2.01,-0.66 2.46,-1.6 0.78,-1.64 1.09,-3.22 0.79,-5.01"/>
   <path class="fil1 str1" d="M12.89 133.56c0,0 -10.62,5.57 2.28,19.29 12.89,13.72 52.56,32.29 63.91,27.8 0,0 5.74,-2.38 6.16,-5.81"/>
   <path class="fil1 str1" d="M8.46 140.37c-1.94,0.4 -3.35,-0.08 -5.15,0.72 -1.79,0.79 -3.14,2.99 -2.03,4.58 0.52,0.74 1.42,1.14 2.24,1.57 1.68,0.88 3.27,2.03 4.27,3.58 1.39,2.14 1.56,4.81 2.91,6.96 1.13,1.8 3.08,3.14 5.24,3.58 1.47,0.3 3.06,0.22 4.37,0.95 0.85,0.48 1.47,1.25 2.07,2.01 1.84,2.31 3.68,4.63 5.51,6.94 1.28,1.62 3.12,3.43 5.15,2.92 0.49,-0.13 0.94,-0.39 1.45,-0.44 1.31,-0.12 2.26,1.14 3.03,2.16 1.88,2.48 4.49,4.47 7.44,5.67 1.51,0.62 3.71,0.79 4.32,-0.63 0.21,-0.51 0.3,-1.24 0.87,-1.28 0.25,-0.01 0.5,0.1 0.67,0.27 3.42,3.34 5.02,8.67 10.71,9.57 2.01,0.32 5.53,-1.75 6.09,-2.21 0.51,-0.41 1.29,-0.31 1.94,-0.15 2.88,0.7 5.85,2.1 8.64,1.24 1.74,-0.53 3.12,-1.98 3.51,-3.68 0.39,-1.7 -0.06,-3.42 -1.4,-4.65"/>
   <path class="fil1 str1" d="M7.24 150.08c0,0 -8.66,10.18 7.61,25.89 10.16,9.81 24.07,17.76 39.5,19.13 5.41,0.48 11.75,0.61 16.06,-2.43 1.63,-1.14 3.1,-2.55 3.96,-4.23"/>
   <path class="fil2" d="M66.08 133.08c-0.23,1.3 -1.53,2.15 -2.9,1.91 -1.37,-0.24 -2.3,-1.48 -2.07,-2.78 0.22,-1.29 1.52,-2.15 2.89,-1.91 1.37,0.24 2.3,1.49 2.08,2.78z"/>
   <path class="fil2" d="M82.83 133.5c-0.23,1.29 -1.52,2.15 -2.89,1.91 -1.38,-0.24 -2.31,-1.49 -2.08,-2.78 0.23,-1.3 1.52,-2.15 2.9,-1.91 1.37,0.24 2.3,1.48 2.07,2.78z"/>
   <path class="fil2" d="M61.02 119.16c-0.23,1.29 -1.52,2.15 -2.9,1.9 -1.37,-0.24 -2.3,-1.48 -2.07,-2.77 0.23,-1.3 1.52,-2.15 2.9,-1.91 1.37,0.24 2.3,1.48 2.07,2.78z"/>
  </g>
  <g id="_1825233610320">
   <path class="fil0" d="M287.93 217.99c0,0 -8.44,-1.45 -5.75,-11.24 0,0 -11.62,-3.89 -7.19,-19.16 0,0 -9.94,-4.29 -2.12,-14.66 0,0 0.87,-4.53 -5.7,-5.2 0,0 3.77,-10.96 13.96,-7.01 10.19,3.94 8.88,10.73 8.88,10.73 0,0 3.97,-5.37 10.78,-2.79 6.81,2.59 6.34,5.83 6.34,5.83 0,0 6.65,-6.67 13.96,3.23 0,0 -3.07,26.52 -33.16,40.27z"/>
   <g>
    <line class="fil1 str1" x1="317.68" y1="230.29" x2="333.66" y2= "241.84" />
    <path class="fil1 str1" d="M333.66 241.84c1.64,1.2 3.8,1.45 5.66,0.62 4.62,-2.05 12.76,-7.43 14.48,-20.22 0.26,-1.92 -0.51,-3.84 -1.98,-5.09"/>
    <line class="fil1 str1" x1="351.82" y1="217.15" x2="336.89" y2= "204.41" />
    <path class="fil1 str1" d="M336.89 204.41c0,0 3.34,-13.79 -15.8,-26.69 0,0 -3.57,27.61 -34.84,41.02 0,0 14.04,15.08 31.43,11.55"/>
    <path class="fil1 str1" d="M317.68 230.29c0,0 4.73,-4.75 8.68,-9.5"/>
   </g>
   <path class="fil1 str1" d="M282.18 206.75c0,0 6.28,-0.22 12.12,-7.33"/>
   <line class="fil1 str1" x1="290.01" y1="171.45" x2="285.84" y2= "177.27" />
  </g>
  <g id="_1825233545664">
   <path class="fil0" d="M147.9 219.5c0,0 -9.81,-2.03 -4.22,-10.14 5.58,-8.11 -0.26,-12.52 6.23,-15.31 8.01,-3.43 11.72,-6.91 10.76,-10.99 -1.39,-5.88 -2.42,-5.74 -1.78,-7.77 0.83,-2.67 3.02,-3.4 9.17,-4.63 6.52,-1.3 12.71,-5.34 13.12,-15.88 0.41,-10.54 8.98,-7.09 13.83,-16.16 3.05,-5.69 4.63,-8.7 4.63,-8.7l1.91 2.49c0,0 -11.3,21.37 -23.31,37.66 -5.74,7.8 -14.14,20.46 -21.74,29 -9.93,11.17 -13.49,15.95 -8.6,20.43z"/>
   <g>
    <path class="fil1 str2" d="M232.17 200.5c0,0 4.16,-20.8 -4.64,-36.47 -7.92,-14.09 -15.17,-24.73 -25.03,-31.04 -3.46,-2.21 -4.84,-6.75 -2.89,-10.36 0.86,-1.6 2.33,-3.12 4.75,-4.27 2.54,-1.2 5.56,-0.95 7.94,0.57 5.82,3.7 17.72,13.39 27.8,35.18 0,0 6.09,11.17 5.68,40.58 0,0 -2.69,9.95 -13.61,5.81z"/>
    <path class="fil1 str2" d="M204.15 130.12c0,0 7.71,-1 7.26,-8.46"/>
    <path class="fil1 str2" d="M234.58 165.82c0,0 -2.79,-11.16 -12.01,-21.77"/>
    <path class="fil1 str2" d="M232.17 200.5c0,0 -39.31,15.85 -80.96,19.29 -2.11,0.17 -4.13,-0.94 -5.11,-2.82"/>
    <path class="fil1 str2" d="M146.1 216.97c-0.96,-1.87 -0.73,-4.13 0.61,-5.75 9.37,-11.42 45.92,-56.65 54.84,-78.81"/>
   </g>
   <path class="fil0" d="M211.69 168.06c-4.29,4.22 -5.96,9.49 -3.73,11.75 2.23,2.27 7.52,0.69 11.82,-3.54 4.29,-4.22 5.96,-9.49 3.73,-11.76 -2.23,-2.26 -7.52,-0.68 -11.82,3.55z"/>
   <path class="fil0" d="M206.67 191.91c-4.9,2.11 -7.89,6.09 -6.69,8.88 1.21,2.8 6.15,3.36 11.05,1.25 4.9,-2.11 7.89,-6.08 6.69,-8.88 -1.21,-2.8 -6.15,-3.35 -11.05,-1.25z"/>
   <path class="fil0" d="M174.83 194.86c-4.83,2.07 -7.64,6.29 -6.3,9.42 1.35,3.13 6.35,3.98 11.17,1.9 4.83,-2.08 7.64,-6.29 6.3,-9.42 -1.35,-3.13 -6.35,-3.98 -11.17,-1.9z"/>
   <path class="fil0" d="M190.01 169.07c-3.4,4.57 -4.34,9.62 -2.1,11.29 2.24,1.68 6.82,-0.67 10.22,-5.24 3.41,-4.56 4.35,-9.62 2.11,-11.29 -2.25,-1.67 -6.82,0.67 -10.23,5.24z"/>
  </g>
  <g id="_1825233555168">
   <path class="fil0" d="M297.35 305.61l-7.52 10.73c0,0 -6.98,-0.92 -8.03,3.94 -1.06,4.86 5.47,6.37 7.89,4.64 0,0 1.17,7.57 6.85,6.6 5.68,-0.97 4.07,-8.33 0.89,-11.12l6.84 -10.08c0,0 -3.59,0.74 -6.92,-4.71z"/>
   <path class="fil1 str2" d="M300.17 308.6c0,0 5.96,5.1 13.34,-1.8 7.37,-6.89 16.87,-10.96 21.58,-15.74 8.97,-9.09 13.25,-27.03 -0.46,-33.62 -14.94,-7.17 -30.28,2.94 -33.68,22.82 -2.78,16.24 -4.28,17.12 -4.67,20.41 -0.39,3.29 1.65,6.7 3.89,7.93z"/>
   <path class="fil3" d="M326.13 291.5c-1.14,0.56 -2.52,0.09 -3.08,-1.05 -0.55,-1.14 -0.08,-2.51 1.06,-3.07 1.13,-0.56 2.51,-0.09 3.07,1.05 0.56,1.14 0.09,2.52 -1.05,3.07z"/>
   <path class="fil3" d="M329.88 272.39c-1.14,0.56 -2.51,0.09 -3.07,-1.05 -0.56,-1.14 -0.09,-2.52 1.05,-3.07 1.14,-0.56 2.52,-0.09 3.07,1.05 0.56,1.14 0.09,2.51 -1.05,3.07z"/>
   <path class="fil3" d="M334.87 281.75c-0.74,0.37 -1.65,0.06 -2.01,-0.69 -0.37,-0.75 -0.06,-1.65 0.69,-2.02 0.74,-0.36 1.65,-0.05 2.02,0.69 0.36,0.75 0.05,1.66 -0.7,2.02z"/>
   <path class="fil3" d="M317.32 297.1c-0.57,0.28 -1.26,0.05 -1.54,-0.52 -0.28,-0.57 -0.04,-1.26 0.53,-1.54 0.56,-0.28 1.25,-0.04 1.53,0.53 0.28,0.57 0.05,1.25 -0.52,1.53z"/>
  </g>
  <g id="_1825233558384">
   <path class="fil0" d="M59.61 65.87l-10.9 7.28c0,0 -6.17,-3.4 -8.91,0.75 -2.75,4.15 2.79,7.92 5.67,7.19 0,0 -1.65,7.48 4,8.63 5.64,1.15 6.8,-6.29 4.85,-10.04l10.03 -6.91c0,0 -3.61,-0.61 -4.74,-6.9z"/>
   <path class="fil1 str2" d="M61.15 69.68c0,0 3.71,6.91 13.09,3.16 9.37,-3.76 19.69,-4.11 25.82,-6.85 11.65,-5.23 22.15,-20.39 11.75,-31.5 -11.32,-12.1 -29.28,-8.24 -39.65,9.06 -8.48,14.12 -10.2,14.4 -11.76,17.32 -1.56,2.93 -0.89,6.85 0.75,8.81z"/>
   <path class="fil3" d="M91.54 63.15c-1.26,0.11 -2.37,-0.83 -2.48,-2.09 -0.11,-1.27 0.83,-2.38 2.09,-2.49 1.27,-0.1 2.38,0.83 2.49,2.1 0.1,1.26 -0.83,2.37 -2.1,2.48z"/>
   <path class="fil3" d="M101.97 46.7c-1.26,0.1 -2.37,-0.83 -2.48,-2.1 -0.11,-1.26 0.83,-2.37 2.09,-2.48 1.27,-0.11 2.38,0.83 2.48,2.09 0.11,1.27 -0.83,2.38 -2.09,2.49z"/>
   <path class="fil3" d="M103.23 57.23c-0.83,0.07 -1.56,-0.54 -1.63,-1.37 -0.07,-0.83 0.54,-1.56 1.37,-1.63 0.83,-0.08 1.56,0.54 1.64,1.37 0.07,0.83 -0.55,1.56 -1.38,1.63z"/>
   <path class="fil3" d="M81.3 65.18c-0.63,0.05 -1.19,-0.42 -1.24,-1.05 -0.05,-0.63 0.41,-1.19 1.05,-1.24 0.63,-0.06 1.18,0.41 1.24,1.04 0.05,0.64 -0.42,1.19 -1.05,1.25z"/>
  </g>
  <g id="_1825233555984">
   <g>
    <g>
     <path class="fil1 str3" d="M182.69 15.53c0,0 -0.44,18.28 -6.12,40.55"/>
     <line class="fil1 str3" x1="176.57" y1="56.08" x2="182.44" y2= "59.47" />
     <path class="fil1 str3" d="M182.44 59.47c0,0 7.63,-23.9 7.46,-37.75"/>
     <line class="fil1 str3" x1="189.9" y1="21.72" x2="182.69" y2= "15.53" />
     <line class="fil1 str3" x1="182.69" y1="15.53" x2="175.77" y2= "18.37" />
     <path class="fil1 str3" d="M175.77 18.37c0,0 0.34,16.82 -4.64,37.85"/>
     <line class="fil1 str3" x1="171.13" y1="56.22" x2="176.57" y2= "56.08" />
     <polyline class="fil1 str3" points="171.13,56.22 176.76,60.14 182.44,59.47 "/>
    </g>
    <g>
     <path class="fil1 str3" d="M259.08 68.78c0,0 -17.03,6.67 -39.76,10.04"/>
     <line class="fil1 str3" x1="219.32" y1="78.82" x2="218.46" y2= "85.54" />
     <path class="fil1 str3" d="M218.46 85.54c0,0 24.98,-2.21 37.7,-7.72"/>
     <line class="fil1 str3" x1="256.16" y1="77.82" x2="259.08" y2= "68.78" />
     <line class="fil1 str3" x1="259.08" y1="68.78" x2="253.79" y2= "63.5" />
     <path class="fil1 str3" d="M253.79 63.5c0,0 -15.38,6.82 -36.71,10.35"/>
     <line class="fil1 str3" x1="217.08" y1="73.85" x2="219.32" y2= "78.82" />
     <polyline class="fil1 str3" points="217.08,73.85 215.65,80.56 218.46,85.54 "/>
    </g>
    <g>
     <path class="fil1 str3" d="M228.86 1.15c0,0 -1.81,5.62 -16.25,23.49"/>
     <line class="fil1 str3" x1="212.61" y1="24.64" x2="216.53" y2= "30.16" />
     <path class="fil1 str3" d="M216.53 30.16c0,0 9.24,-11.8 14.79,-21.19"/>
     <line class="fil1 str3" x1="231.32" y1="8.97" x2="228.86" y2= "1.15" />
     <line class="fil1 str3" x1="228.86" y1="1.15" x2="221.39" y2= "0.84" />
     <path class="fil1 str3" d="M221.39 0.84c0,0 -0.5,4.62 -13.79,21.66"/>
     <line class="fil1 str3" x1="207.6" y1="22.5" x2="212.61" y2= "24.64" />
     <polyline class="fil1 str3" points="207.6,22.5 211.08,28.4 216.53,30.16 "/>
    </g>
    <g>
     <path class="fil1 str3" d="M273.17 129.9c0,0 -4.35,-4 -14.55,-24.59"/>
     <line class="fil1 str3" x1="258.62" y1="105.31" x2="251.97" y2= "106.56" />
     <path class="fil1 str3" d="M251.97 106.56c0,0 6.86,13.33 13.06,22.29"/>
     <line class="fil1 str3" x1="265.03" y1="128.85" x2="273.17" y2= "129.9" />
     <line class="fil1 str3" x1="273.17" y1="129.9" x2="276.57" y2= "123.24" />
     <path class="fil1 str3" d="M276.57 123.24c0,0 -3.98,-2.39 -13.91,-21.59"/>
     <line class="fil1 str3" x1="262.66" y1="101.65" x2="258.62" y2= "105.31" />
     <polyline class="fil1 str3" points="262.66,101.65 255.84,102.35 251.97,106.56 "/>
    </g>
    <g>
     <path class="fil1 str3" d="M244.73 25.62c0,0 5.24,2.73 20.46,19.94"/>
     <line class="fil1 str3" x1="265.19" y1="45.56" x2="271.29" y2= "42.61" />
     <path class="fil1 str3" d="M271.29 42.61c0,0 -10.1,-11.08 -18.44,-18.11"/>
     <line class="fil1 str3" x1="252.85" y1="24.5" x2="244.73" y2= "25.62" />
     <line class="fil1 str3" x1="244.73" y1="25.62" x2="243.19" y2= "32.93" />
     <path class="fil1 str3" d="M243.19 32.93c0,0 4.46,1.27 19.06,17.21"/>
     <line class="fil1 str3" x1="262.25" y1="50.14" x2="265.19" y2= "45.56" />
     <polyline class="fil1 str3" points="262.25,50.14 268.65,47.69 271.29,42.61 "/>
    </g>
   </g>
   <g>
    <g>
     <g>
      <path class="fil1 str3" d="M147.43 73.88c0,0 -3.44,35.38 -23.51,82.55"/>
      <polyline class="fil1 str3" points="123.92,156.43 112.38,148.94 125.95,75.11 147.43,73.88 "/>
      <line class="fil1 str3" x1="147.43" y1="73.88" x2="159.52" y2= "81.91" />
      <path class="fil1 str3" d="M159.52 81.91c0,0 -2.68,18.39 10.05,24.09 12.73,5.7 17.05,-7.76 17.05,-7.76"/>
      <polyline class="fil1 str3" points="186.62,98.24 190.85,102.25 157.12,160.87 123.92,156.43 "/>
     </g>
     <polygon class="fil1 str3" points="153.94,78.2 160.44,56.12 167.17,58.08 159.52,81.91 "/>
     <polygon class="fil1 str3" points="140.61,47.34 138.4,74.4 129.14,74.93 131.37,53.12 "/>
     <polyline class="fil1 str3" points="140.61,47.34 145.58,49.96 142.77,74.14 "/>
     <polyline class="fil1 str3" points="145.58,49.96 146.09,34.63 155.49,32.3 "/>
     <path class="fil1 str3" d="M155.49 32.3c0,0 1.93,13.85 -0.88,27.97"/>
     <line class="fil1 str3" x1="155.49" y1="32.3" x2="160.55" y2= "35.7" />
     <path class="fil1 str3" d="M160.55 35.7c0,0 2.19,9.74 -0.11,20.42"/>
     <polyline class="fil1 str3" points="160.44,56.12 154.61,60.27 150.12,75.67 "/>
     <path class="fil1 str3" d="M164 67.96c0.06,-0.19 6.29,0.59 6.29,0.59"/>
     <line class="fil1 str3" x1="170.29" y1="68.55" x2="161.65" y2= "97.98" />
     <polyline class="fil1 str3" points="170.29,68.55 172.67,77.09 165.19,103.04 "/>
     <line class="fil1 str3" x1="171.25" y1="106.66" x2="184.99" y2= "72.89" />
     <path class="fil1 str3" d="M184.99 72.89c0,0 -6.13,-1.4 -6.21,-1.21"/>
     <line class="fil1 str3" x1="178.78" y1="71.68" x2="165.52" y2= "102.42" />
     <polyline class="fil1 str3" points="184.99,72.89 186.49,81.63 176.45,106.7 "/>
     <polyline class="fil1 str3" points="186.62,98.24 191.41,89.15 185.35,85.95 "/>
    </g>
    <path class="fil0" d="M164.55 133.57c-4.07,10.56 -11.68,17.46 -16.98,15.42 -5.31,-2.05 -6.31,-12.27 -2.24,-22.84 4.08,-10.56 11.68,-17.47 16.99,-15.42 5.31,2.05 6.31,12.27 2.23,22.84z"/>
   </g>
  </g>
  <g id="_1825233561792">
   <g>
    <path class="fil1 str2" d="M302.49 70.74c0,0 -7.24,7.84 -0.66,14.14 6.59,6.3 14.23,10.55 20.5,31.45 6.26,20.9 -1.69,30.68 12.99,33.65 14.68,2.96 27.97,-18.82 14.98,-51.89 -13,-33.08 -50.31,-54.41 -64.65,-32.3 0,0 10.05,-3.19 16.84,4.95z"/>
    <path class="fil1 str2" d="M285.65 65.79c0,0 -12.26,1.94 -13.81,10.93 -1.75,10.05 3.45,13.78 12.23,16.91 8.79,3.14 22.36,15.1 24.98,28.27 2.61,13.17 -4,24.92 4.11,31.06 8.12,6.14 16.02,4.23 22.16,-2.98"/>
    <path class="fil1 str2" d="M309.1 139.18c0,0 -5.81,1.51 -5.43,-4.68 0.38,-6.19 0.1,-14.52 -6.1,-21.96 -6.2,-7.44 -20.28,-11.65 -17.03,-20.29"/>
   </g>
   <path class="fil1 str4" d="M318.94 141.3c-2.66,1.99 -6.72,1.19 -10.02,-0.18 -0.99,-0.41 -2.01,-0.9 -2.59,-1.76 -0.88,-1.27 -0.49,-2.93 0.3,-4.13 1.8,-2.78 5.29,-4.08 8.66,-4.93 5.7,-1.45 6.13,-0.83 11.54,-2.95 2.46,-0.96 4.84,-2.28 6.25,-4.39 1.42,-2.11 1.63,-5.14 -0.08,-7.28 -0.65,-0.8 -1.58,-1.46 -2.62,-1.59 -0.82,-0.1 -1.61,0.14 -2.37,0.37 -5.63,1.72 -5.66,2.2 -11.28,3.93 -4.41,1.35 -9.31,2.68 -13.79,0.87 -1.97,-0.8 -3.87,-2.55 -3.72,-4.51 0.14,-1.65 1.66,-2.77 3.14,-3.57 4.71,-2.56 10.14,-3.81 15.27,-5.62 2.6,-0.92 5.26,-2.1 6.72,-4.31 2.26,-3.43 0.63,-8.61 -3.02,-11.22 -3.66,-2.6 -8.73,-2.76 -12.58,-0.99 -3.69,1.7 -6.27,4.86 -9.25,7.49 -1.83,1.62 -4.19,3.6 -6.73,2.84 -5.89,-1.75 -4.27,-6.96 -3.17,-10.16"/>
  </g>
  <circle class="fil4" cx="92.23" cy="92" r="4.84"/>
  <circle class="fil4" cx="132.32" cy="7.62" r="3.97"/>
  <circle class="fil4" cx="165.01" cy="371.91" r="5.61"/>
  <circle class="fil4" cx="43.86" cy="308.32" r="5.61"/>
  <circle class="fil4" cx="364.27" cy="174.91" r="4.09"/>
  <circle class="fil4" cx="295.21" cy="37.82" r="4.09"/>
  <circle class="fil4" cx="122.28" cy="177.94" r="2.87"/>
  <circle class="fil4" cx="94.08" cy="276.9" r="3.13"/>
  <circle class="fil4" cx="169.54" cy="287.86" r="3.39"/>
  <circle class="fil4" cx="257.4" cy="214.1" r="2.48"/>
 </g>
</svg>
